<?xml version="1.0" encoding="UTF-8" standalone="no"?>
<!-- Created with Inkscape (http://www.inkscape.org/) -->

<svg
   xmlns:dc="http://purl.org/dc/elements/1.1/"
   xmlns:cc="http://creativecommons.org/ns#"
   xmlns:rdf="http://www.w3.org/1999/02/22-rdf-syntax-ns#"
   xmlns:svg="http://www.w3.org/2000/svg"
   xmlns="http://www.w3.org/2000/svg"
   xmlns:sodipodi="http://sodipodi.sourceforge.net/DTD/sodipodi-0.dtd"
   xmlns:inkscape="http://www.inkscape.org/namespaces/inkscape"
   width="135.4664mm"
   height="135.45581mm"
   viewBox="0 0 135.4664 135.45581"
   version="1.1"
   id="svg8"
   inkscape:version="0.92.3 (2405546, 2018-03-11)"
   sodipodi:docname="ico_log.svg">
  <defs
     id="defs2" />
  <sodipodi:namedview
     id="base"
     pagecolor="#ffffff"
     bordercolor="#666666"
     borderopacity="1.0"
     inkscape:pageopacity="0.0"
     inkscape:pageshadow="2"
     inkscape:zoom="0.35"
     inkscape:cx="247.42807"
     inkscape:cy="178.83664"
     inkscape:document-units="mm"
     inkscape:current-layer="layer1"
     showgrid="false"
     fit-margin-top="0"
     fit-margin-left="0"
     fit-margin-right="0"
     fit-margin-bottom="0"
     inkscape:window-width="1366"
     inkscape:window-height="705"
     inkscape:window-x="-8"
     inkscape:window-y="296"
     inkscape:window-maximized="1" />
  <metadata
     id="metadata5">
    <rdf:RDF>
      <cc:Work
         rdf:about="">
        <dc:format>image/svg+xml</dc:format>
        <dc:type
           rdf:resource="http://purl.org/dc/dcmitype/StillImage" />
        <dc:title />
      </cc:Work>
    </rdf:RDF>
  </metadata>
  <g
     inkscape:label="Calque 1"
     inkscape:groupmode="layer"
     id="layer1"
     transform="translate(-40.36799,-60.694711)">
    <g
       id="g3780"
       transform="matrix(0.26458333,0,0,0.26458333,40.36799,60.689419)"
       style="fill:#000000">
      <g
         id="g3721"
         style="fill:#000000">
        <g
           id="g3719"
           style="fill:#000000">
          <g
             id="g3717"
             style="fill:#000000">
            <path
               id="path3713"
               d="m 501.333,362.24 h -10.667 v -10.667 c 0,-41.173 -33.493,-74.667 -74.667,-74.667 -41.174,0 -74.667,33.493 -74.667,74.667 v 10.667 h -10.667 c -5.888,0 -10.667,4.779 -10.667,10.667 v 128 c 0,5.888 4.779,10.667 10.667,10.667 h 170.667 c 5.888,0 10.667,-4.779 10.667,-10.667 v -128 C 512,367.019 507.221,362.24 501.333,362.24 Z m -74.666,82.069 v 13.952 c 0,5.888 -4.779,10.667 -10.667,10.667 -5.888,0 -10.667,-4.779 -10.667,-10.667 v -13.952 c -6.251,-3.733 -10.667,-10.261 -10.667,-18.048 0,-11.755 9.557,-21.333 21.333,-21.333 11.776,0 21.333,9.579 21.333,21.333 0.001,7.787 -4.415,14.315 -10.665,18.048 z M 469.333,362.24 H 362.667 v -10.667 c 0,-29.397 23.915,-53.333 53.333,-53.333 29.419,0 53.333,23.936 53.333,53.333 z"
               inkscape:connector-curvature="0"
               style="fill:#000000" />
            <path
               id="path3715"
               d="m 364.907,270.699 c 1.877,-1.195 3.307,-2.944 4.139,-4.992 1.493,-3.733 2.752,-7.275 3.733,-10.624 12.629,-3.093 22.485,-13.717 24.149,-27.115 l 5.333,-42.667 c 1.131,-9.003 -1.643,-18.091 -7.595,-24.939 -3.541,-3.989 -7.957,-7.019 -12.843,-8.875 l 1.963,-40.171 7.979,-7.979 c 12.011,-12.779 21.973,-34.688 1.152,-66.496 -16,-24.448 -43.179,-36.821 -80.789,-36.821 -14.827,0 -49.024,0 -80.875,21.376 C 140.352,23.296 128,65.515 128,106.688 c 0,9.579 2.325,31.147 3.861,44.16 -5.483,1.728 -10.475,4.928 -14.336,9.323 -6.059,6.869 -8.896,16.043 -7.765,25.152 l 5.333,42.667 c 1.728,13.909 12.309,24.853 25.643,27.456 4.437,29.333 18.624,58.112 39.232,79.403 l -7.424,29.717 -81.728,20.437 C 37.333,398.357 0,446.208 0,501.312 c 0,2.837 1.131,5.547 3.115,7.552 2.005,1.984 4.715,3.115 7.552,3.115 0,0 0,0 0.021,0 l 277.333,-0.405 c 5.867,0 10.645,-4.779 10.645,-10.667 v -128 c 0,-11.819 6.635,-22.613 17.28,-28.203 2.987,-1.579 5.056,-4.459 5.589,-7.808 4.225,-27.115 20.012,-51.243 43.372,-66.197 z"
               inkscape:connector-curvature="0"
               style="fill:#000000" />
          </g>
        </g>
      </g>
      <g
         id="g3723"
         style="fill:#000000" />
      <g
         id="g3725"
         style="fill:#000000" />
      <g
         id="g3727"
         style="fill:#000000" />
      <g
         id="g3729"
         style="fill:#000000" />
      <g
         id="g3731"
         style="fill:#000000" />
      <g
         id="g3733"
         style="fill:#000000" />
      <g
         id="g3735"
         style="fill:#000000" />
      <g
         id="g3737"
         style="fill:#000000" />
      <g
         id="g3739"
         style="fill:#000000" />
      <g
         id="g3741"
         style="fill:#000000" />
      <g
         id="g3743"
         style="fill:#000000" />
      <g
         id="g3745"
         style="fill:#000000" />
      <g
         id="g3747"
         style="fill:#000000" />
      <g
         id="g3749"
         style="fill:#000000" />
      <g
         id="g3751"
         style="fill:#000000" />
    </g>
  </g>
</svg>
