<?xml version="1.0" encoding="UTF-8" standalone="no"?>
<!-- Generator: Adobe Illustrator 19.0.0, SVG Export Plug-In . SVG Version: 6.00 Build 0)  -->

<svg
   xmlns:dc="http://purl.org/dc/elements/1.1/"
   xmlns:cc="http://creativecommons.org/ns#"
   xmlns:rdf="http://www.w3.org/1999/02/22-rdf-syntax-ns#"
   xmlns:svg="http://www.w3.org/2000/svg"
   xmlns="http://www.w3.org/2000/svg"
   xmlns:sodipodi="http://sodipodi.sourceforge.net/DTD/sodipodi-0.dtd"
   xmlns:inkscape="http://www.inkscape.org/namespaces/inkscape"
   version="1.1"
   id="Layer_1"
   x="0px"
   y="0px"
   viewBox="0 0 512 512"
   style="enable-background:new 0 0 512 512;"
   xml:space="preserve"
   sodipodi:docname="ico_pass2.svg"
   inkscape:version="0.92.3 (2405546, 2018-03-11)"><metadata
   id="metadata43"><rdf:RDF><cc:Work
       rdf:about=""><dc:format>image/svg+xml</dc:format><dc:type
         rdf:resource="http://purl.org/dc/dcmitype/StillImage" /></cc:Work></rdf:RDF></metadata><defs
   id="defs41" /><sodipodi:namedview
   pagecolor="#ffffff"
   bordercolor="#666666"
   borderopacity="1"
   objecttolerance="10"
   gridtolerance="10"
   guidetolerance="10"
   inkscape:pageopacity="0"
   inkscape:pageshadow="2"
   inkscape:window-width="972"
   inkscape:window-height="509"
   id="namedview39"
   showgrid="false"
   inkscape:zoom="0.4609375"
   inkscape:cx="256"
   inkscape:cy="256"
   inkscape:window-x="101"
   inkscape:window-y="412"
   inkscape:window-maximized="0"
   inkscape:current-layer="Layer_1" />
<g
   id="g6"
   style="fill:#000000">
	<g
   id="g4"
   style="fill:#000000">
		<path
   d="M384,213.333H181.333v-74.667C181.333,97.493,214.827,64,256,64s74.667,33.493,74.667,74.667v42.667    c0,5.888,4.779,10.667,10.667,10.667H384c5.888,0,10.667-4.779,10.667-10.667v-42.667C394.667,62.208,332.459,0,256,0    S117.333,62.208,117.333,138.667v75.755c-24.32,4.949-42.667,26.517-42.667,52.245v192C74.667,488.064,98.581,512,128,512h256    c29.419,0,53.333-23.936,53.333-53.333v-192C437.333,237.269,413.419,213.333,384,213.333z M279.659,378.24l8.235,57.579    c0.448,3.072-0.469,6.165-2.496,8.491c-2.027,2.325-4.971,3.691-8.064,3.691h-42.667c-3.093,0-6.037-1.344-8.064-3.669    s-2.944-5.44-2.496-8.491l8.235-57.579c-17.835-8.917-29.675-27.328-29.675-47.595c0-29.397,23.915-53.333,53.333-53.333    s53.333,23.936,53.333,53.333C309.333,350.933,297.493,369.344,279.659,378.24z"
   id="path2"
   style="fill:#000000" />
	</g>
</g>
<g
   id="g8">
</g>
<g
   id="g10">
</g>
<g
   id="g12">
</g>
<g
   id="g14">
</g>
<g
   id="g16">
</g>
<g
   id="g18">
</g>
<g
   id="g20">
</g>
<g
   id="g22">
</g>
<g
   id="g24">
</g>
<g
   id="g26">
</g>
<g
   id="g28">
</g>
<g
   id="g30">
</g>
<g
   id="g32">
</g>
<g
   id="g34">
</g>
<g
   id="g36">
</g>
</svg>