<svg id="Calque_1" data-name="Calque 1" xmlns="http://www.w3.org/2000/svg" viewBox="0 0 473.64 196.76"><defs><style>.cls-1{fill:#b5651e;}.cls-2{fill:#ff9f34;}.cls-3{fill:#da7a27;}.cls-4{fill:#ffdcaf;}.cls-5{fill:#e5d17f;}.cls-6{fill:#9b3400;}.cls-7{font-size:64.92px;font-family:MVBoli, MV Boli;letter-spacing:-0.01em;}</style></defs><title>logo_color1</title><path class="cls-1" d="M151.24,197.07H188c-1.62-17.26-27.64-13.5-27.64-13.5s-1.52-3,6-17.94c9.63-19.07-6-39.17-6-39.17h0c0,43.87-19.81,59.68-19.81,59.68C146,187.35,150.61,190.38,151.24,197.07Z" transform="translate(-9.04 -3.81)"/><path class="cls-1" d="M160.3,112.88l10.06,3.38s-1.77,17.08,4.27,18.37,6.74-11,6.74-20.4c0-5.83-14.64-18-18.79-23.48a15,15,0,0,1-2.29-4.52" transform="translate(-9.04 -3.81)"/><path class="cls-2" d="M12.54,197.07H36.31A139.89,139.89,0,0,0,70,193c10.84-2.69,23.1-6.55,28.07-11.11l6,15.2h47.17c-.63-6.7-5.28-9.73-10.74-10.93,0,0,19.81-15.81,19.81-59.68s0-53.51-4.2-64.19c-3.41-8.71,1.53-15.38,3.47-17.55l.72-.75h0c5.86-1,12.43-1.53,17.87-.69,0,0,10.93-9.2,9.07-12.19S175.41,27,173,23.26,163.54,7.17,148.21,8.88,119.4,21,113.36,55.1,102.21,171.19,76.19,178,18.58,180,12.54,197.07Z" transform="translate(-9.04 -3.81)"/><path class="cls-3" d="M12.54,197.07h9.32c6-17.09,37.64-12.21,63.65-19S116.64,89.18,122.68,55.1C128.45,22.54,141,11.56,155.5,9.16a23.48,23.48,0,0,0-7.29-.28C132.88,10.59,119.4,21,113.36,55.1S102.21,171.19,76.19,178,18.58,180,12.54,197.07Z" transform="translate(-9.04 -3.81)"/><path class="cls-4" d="M156.11,62.27c-3.41-8.71,1.53-15.38,3.47-17.55l.72-.75h0c-4.77.78-9.06,1.82-11.91,2.58-7.48,19.12-13.81,99-13.81,99l-.69,2.09c3.07,5.71,5.37,14.1-1.46,21.39-6.54,7-9.26,11.77-10.39,14.63l-.57,1.74a5.39,5.39,0,0,0-.22,1.54s10.62-2.65,19.23-.76c0,0,19.81-15.81,19.81-59.68S160.29,73,156.11,62.27Z" transform="translate(-9.04 -3.81)"/><path class="cls-4" d="M141.46,186.38h0Z" transform="translate(-9.04 -3.81)"/><path d="M138.22,35.22c-2.4-3.87-2.45-5.8-2.14-6.27.55-.85,3.55-1.23,5.63-.95a3.5,3.5,0,1,0,.93-6.93c-.92-.12-9.1-1.06-12.43,4.08-2.19,3.38-1.49,8,2.07,13.76a3.49,3.49,0,0,0,5.94-3.68Z" transform="translate(-9.04 -3.81)"/><path d="M9.68,199.09a3.5,3.5,0,0,0,2.85,1.48H36.31a143.49,143.49,0,0,0,34.49-4.19c11.63-2.88,20.22-5.93,25.62-9.09l4.4,11.08a3.49,3.49,0,0,0,3.25,2.2H188a3.5,3.5,0,0,0,3.48-3.82A16.31,16.31,0,0,0,185.19,185c-6.22-4.9-15.54-5.41-21-5.22a71.09,71.09,0,0,1,5.25-12.55c4.39-8.68,4.65-18.89.76-29.51a55.67,55.67,0,0,0-6.41-12.37q0-4,0-7.59l2.87,1c-.34,6.33.06,17.82,7.24,19.34a7.63,7.63,0,0,0,1.58.17,6.69,6.69,0,0,0,4.28-1.54c3.62-2.93,5.1-9.44,5.1-22.46,0-5-5.36-10.88-13.54-19.19a87,87,0,0,1-6-6.41,11.52,11.52,0,0,1-1.74-3.47,3.47,3.47,0,0,0-.24-.55c-.49-11.4-1.59-17.35-4-23.59-2.63-6.72,1.06-11.93,2.65-13.75,5.26-.8,10.95-1.22,15.63-.51a3.49,3.49,0,0,0,2.78-.78A72.12,72.12,0,0,0,186,40.7c3.18-3.4,6.53-7.78,4.25-11.45-1.52-2.44-4.63-3.59-8.24-4.92-2-.75-5.44-2-6.1-3l-.45-.69c-3-4.67-11-17.08-27.6-15.23a34.09,34.09,0,0,0-23.18,12.18c-6.95,8.15-11.76,20.22-14.72,36.91a3.5,3.5,0,1,0,6.88,1.22C123.26,19.31,138,13.53,148.6,12.36c12.29-1.37,18.14,7.71,21,12.07l.5.76c1.91,2.89,5.77,4.32,9.51,5.7a40,40,0,0,1,4,1.65,40.57,40.57,0,0,1-6.52,7.08c-13.79-1.45-32.42,4.35-33.24,4.61a3.5,3.5,0,1,0,2.1,6.67c.07,0,2.84-.88,6.92-1.85a19.16,19.16,0,0,0,0,14.5c4,10.1,4,20.24,4,62.92a113.27,113.27,0,0,1-3.41,28.64c-.31,1.19-.65,2.37-1,3.52a3.5,3.5,0,1,0,6.68,2.06c.38-1.24.75-2.52,1.08-3.8A110.41,110.41,0,0,0,163.23,139q.25.62.48,1.27c3.18,8.82,3,16.82-.5,23.78-5.52,10.92-7.55,18-6,21.08a3.5,3.5,0,0,0,3.63,1.9,44.19,44.19,0,0,1,7.81-.24c5.34.31,9.58,1.58,12.25,3.69a9.18,9.18,0,0,1,2.56,3.09H154.12a14.21,14.21,0,0,0-5.51-7.75,16.72,16.72,0,0,0-1.88-1.15,62.62,62.62,0,0,0,8.7-14.28,3.5,3.5,0,0,0-6.37-2.87,51.3,51.3,0,0,1-9.65,14.85,46.92,46.92,0,0,0-12.88,0,58.37,58.37,0,0,1,8.48-11c5.77-6.17,6.95-13.94,3.4-22.46a37.7,37.7,0,0,0-6.71-10.46,3.49,3.49,0,0,0-5.06,4.82c.51.54,12.51,13.46,3.27,23.33-11.8,12.61-12.26,19-12.12,20.6a3.5,3.5,0,0,0,4.33,3.09c3.29-.82,11.4-2.1,17.61-.74h0a13.25,13.25,0,0,1,4.82,2,7.29,7.29,0,0,1,2,2H106.44l-5.16-13a3.49,3.49,0,0,0-5.61-1.28c-2.07,1.9-8.26,5.76-26.54,10.29a136.48,136.48,0,0,1-32.81,4H19c5.84-5.26,17.64-6.51,30.89-7.9,9-.95,18.28-1.93,27.2-4.27,10.62-2.79,18.87-15.68,25.21-39.41,5.18-19.38,8.4-43.16,11-62.28.55-4,1.06-7.87,1.57-11.47a3.5,3.5,0,0,0-6.92-1c-.51,3.62-1,7.45-1.58,11.51-2.56,18.92-5.75,42.46-10.81,61.41C90,161,83.17,172.58,75.3,174.64c-8.4,2.21-17.43,3.16-26.16,4.08C31.08,180.63,14,182.43,9.24,195.91A3.49,3.49,0,0,0,9.68,199.09Zm154.11-88.73c0-4.9,0-9.25-.08-13.14.82.86,1.71,1.76,2.64,2.7,2.74,2.79,5.85,5.95,8.17,8.79,3.32,4.06,3.36,5.45,3.36,5.5,0,14.19-2,16.63-2.47,17h0c-1-.69-2.41-6.39-1.56-14.59a3.49,3.49,0,0,0-2.36-3.67Z" transform="translate(-9.04 -3.81)"/><path d="M160.55,23.8a4,4,0,1,0,4,4A4,4,0,0,0,160.55,23.8Z" transform="translate(-9.04 -3.81)"/><polygon class="cls-5" points="112.09 113.01 107.61 117.17 104.9 123.53 106.25 129.15 109.48 133.42 115.53 136.76 121.15 135.04 125.84 131.44 126.67 129.36 121.46 126.65 118.44 122.17 115.78 116.24 114.8 113.01 112.09 113.01"/><polygon class="cls-6" points="119.17 108.95 116.36 114.99 117.09 120.4 120.84 125.61 127.19 127.59 132.4 127.59 142.5 121.03 154.48 112.49 167.08 104.22 170.31 100.51 165.31 99.16 164.16 96.03 163.64 91.66 161.98 90.72 158.54 89.68 159.37 85.09 159.06 82.49 141.88 93.01 119.17 108.95"/><polygon class="cls-5" points="168.75 78.12 162.29 78.12 161.14 82.49 159.37 87.39 159.37 89.93 164.58 91.24 164.79 95.72 165.31 99.16 171.14 100.41 174.48 98.52 180.83 87.59 179.27 81.76 173.64 76.87 168.75 78.12"/><g id="Pencil"><path d="M114,136.14a14.17,14.17,0,0,0,19.71,3.67l49.68-33.87a2.39,2.39,0,0,0,.72-.77l14.35-24.32a2.41,2.41,0,0,0-1.64-3.6,2.38,2.38,0,0,0-.71,0l-24.95,2.85a2.41,2.41,0,0,0-1.09.41l-52.39,35.94A14.17,14.17,0,0,0,114,136.14ZM173.1,84.7l9.34-1.07A10.31,10.31,0,0,0,184.11,88a13,13,0,0,0,2.79,2.88l-6.11,10.36-5.46-1,.88-4.74a2.41,2.41,0,0,0-1.93-2.81l-4.19-.78Zm-41.32,27.88,34.28-23.52-1.56,3.75a2.42,2.42,0,0,0,1.79,3.3L171,97l-.88,4.74a2.41,2.41,0,0,0,1.93,2.81l3.74.7L142.4,128l0,0a9.36,9.36,0,1,1-10.59-15.43Zm-11.39,7.82,2.62-1.8A14.12,14.12,0,0,0,133.61,134L131,135.82h0a9.35,9.35,0,1,1-10.58-15.43Zm15.44,3.68L164,104.77a2.41,2.41,0,1,0-2.73-4L133.1,120.1a2.41,2.41,0,0,0,2.73,4Z" transform="translate(-9.04 -3.81)"/></g><path class="cls-2" d="M120.72,106.83l23.44,7.87s-1.77,17.08,4.27,18.37,6.74-11,6.74-20.4c0-5.83-14.64-18-18.79-23.48s-3.29-13.78-3.29-13.78" transform="translate(-9.04 -3.81)"/><path d="M119.6,110.15l20.88,7a57.47,57.47,0,0,0,.06,6.49c.54,7.62,2.95,11.94,7.16,12.84a7.63,7.63,0,0,0,1.58.17,6.69,6.69,0,0,0,4.28-1.54c3.62-2.93,5.1-9.44,5.1-22.45,0-5-5.36-10.88-13.54-19.19a87.1,87.1,0,0,1-6-6.41c-3.24-4.25-2.6-11.24-2.59-11.31a3.5,3.5,0,0,0-7-.71c0,.4-.94,9.78,4,16.25a87.9,87.9,0,0,0,6.54,7.08c2.74,2.79,5.85,5.95,8.17,8.79,3.32,4.06,3.36,5.45,3.36,5.5,0,14.19-2,16.63-2.47,17h0c-1.15-.8-2.35-7-1.56-14.59a3.5,3.5,0,0,0-2.36-3.67l-23.44-7.87a3.5,3.5,0,1,0-2.22,6.63Z" transform="translate(-9.04 -3.81)"/><text class="cls-7" transform="translate(232.78 88.22) rotate(-7.91) scale(0.99 1)">Surichat</text></svg>